<svg width="113" height="113" viewBox="0 0 113 113" fill="none" xmlns="http://www.w3.org/2000/svg">
<path d="M95.2424 60.5358H86.3638C85.5567 60.2667 83.9424 59.0829 83.9424 56.5001C83.9424 53.9172 85.5567 52.7334 86.3638 52.4643H95.2424C99.2781 54.0786 98.471 56.5001 98.471 57.3072C97.8252 59.2443 96.3186 59.9977 95.2424 60.5358Z" stroke="black" stroke-width="3"/>
<path d="M24.2141 60.5358H15.3355C14.5283 60.2667 12.9141 59.0829 12.9141 56.5001C12.9141 53.9172 14.5283 52.7334 15.3355 52.4643H24.2141C28.2498 54.0786 27.4426 56.5001 27.4426 57.3072C26.7969 59.2443 25.2903 59.9977 24.2141 60.5358Z" stroke="black" stroke-width="3"/>
<path d="M51.6572 24.2143V15.3357C51.9263 14.5286 53.1101 12.9143 55.6929 12.9143C58.2758 12.9143 59.4596 14.5286 59.7287 15.3357V24.2143C58.1144 28.25 55.6929 27.4429 54.8858 27.4429C52.9487 26.7972 52.1953 25.2905 51.6572 24.2143Z" stroke="black" stroke-width="3"/>
<path d="M51.6572 96.05V87.1714C51.9263 86.3643 53.1101 84.75 55.6929 84.75C58.2758 84.75 59.4596 86.3643 59.7287 87.1714V96.05C58.1144 100.086 55.6929 99.2786 54.8858 99.2786C52.9487 98.6329 52.1953 97.1262 51.6572 96.05Z" stroke="black" stroke-width="3"/>
<path d="M51.6572 36.3215V57.3072L72.6429 78.2929C75.2258 80.8758 77.4858 79.9072 78.2929 79.1001C80.2301 77.1629 79.6382 75.0643 79.1001 74.2572L75.8715 71.0286L59.7287 55.6929V36.3215C59.7287 33.0929 57.0382 32.2858 55.6929 32.2858C53.1101 32.2858 51.9263 34.9762 51.6572 36.3215Z" stroke="black" stroke-width="3"/>
<circle cx="83.1353" cy="29.0571" r="2.53571" fill="#D9D9D9" stroke="black" stroke-width="3"/>
<circle cx="84.7496" cy="83.9429" r="2.53571" fill="#D9D9D9" stroke="black" stroke-width="3"/>
<circle cx="28.2496" cy="83.9429" r="2.53571" fill="#D9D9D9" stroke="black" stroke-width="3"/>
<circle cx="28.2496" cy="29.0571" r="2.53571" fill="#D9D9D9" stroke="black" stroke-width="3"/>
<circle cx="56.4999" cy="56.5" r="48.5429" stroke="black" stroke-width="3"/>
<circle cx="56.5" cy="56.5" r="55" stroke="black" stroke-width="3"/>
</svg>
