<svg width="117" height="108" viewBox="0 0 117 108" fill="none" xmlns="http://www.w3.org/2000/svg">
<path d="M15.1975 31.8501L2 36.7304V104.389L30.1911 95.529M15.1975 31.8501C11.4387 24.6009 8.75379 3.65883 28.8903 2.04799C34.5285 1.59703 45.9782 4.18977 47.9113 15.7884C49.0408 22.5656 48.0254 27.6561 46.5039 31.0921M15.1975 31.8501L30.1911 48.8123M30.1911 48.8123L30.9966 48.0068L43.0785 35.9249C44.083 35.1436 45.4215 33.5366 46.5039 31.0921M30.1911 48.8123V95.529M46.5039 31.0921L58.3823 35.9249M58.3823 35.9249L85.768 25.4539M58.3823 35.9249V106M85.768 25.4539L113.959 35.1194L114.765 105.195L86.5734 95.529M85.768 25.4539L86.5734 95.529M86.5734 95.529L58.3823 106M58.3823 106L30.1911 95.529" stroke="black" stroke-width="3"/>
<circle cx="30.1911" cy="21.4268" r="7.36007" stroke="black" stroke-width="3"/>
</svg>
