<svg width="111" height="105" viewBox="0 0 111 105" fill="none" xmlns="http://www.w3.org/2000/svg">
<path d="M40.4491 17.6066L67.2278 32.2131L66.4164 22.4754H88.3262C93.7361 23.2869 102.77 28.3181 95.6295 41.9509C94.5475 43.3033 91.5721 46.0082 88.3262 46.0082L20.1012 45.1968C16.0442 45.1968 7.11797 47.6312 4.68315 54.123L3.87207 58.1804" stroke="black" stroke-width="3"/>
<path d="M3.0605 63.0493H2.24902" stroke="black" stroke-width="3"/>
<path d="M2.3098 68.7295C1.76881 73.8688 -0.185597 90.6394 20.1623 93.0738H43.6949V99.5656V102L68.8507 87.3934L45.3179 74.4098V81.7131H21.7851C18.2687 81.9836 11.5605 79.7656 12.8588 68.7295C13.1293 64.9426 15.2932 57.3688 21.7851 57.3688H91.572C95.8999 57.3688 105.367 53.7983 108.613 39.5163V28.9671V26.5327C107.261 21.6639 101.959 12.0884 91.572 12.7376H66.4162V5.43443V3L40.449 17.6066" stroke="black" stroke-width="3"/>
</svg>
