<svg width="87" height="119" viewBox="0 0 87 119" fill="none" xmlns="http://www.w3.org/2000/svg">
<path d="M18.189 90.5631H71.5173C82.9448 87.5158 85.1668 77.8659 84.8494 73.4219V21.0458C86.373 7.33283 75.9613 2.63486 70.565 2H66.7558H16.2844C6.38054 5.04733 2.63486 14.6972 2 19.1413V75.3265C3.52367 86.754 13.4275 90.2457 18.189 90.5631ZM18.189 90.5631L5.80917 111.514C4.85688 114.053 5.04733 118.37 13.4275 115.323L18.189 108.657H69.6127L73.4219 115.323C74.6916 116.91 78.1833 118.941 81.9925 114.37C82.3099 114.053 82.5639 113.037 81.0402 111.514L67.7081 91.5154H59.1375L64.8513 101.038H22.9504L28.6642 91.5154L18.189 90.5631ZM14.3798 48.6623V19.1413C14.6972 16.6018 16.4748 11.5229 21.0458 11.5229H66.7558H67.7081C69.6127 12.1578 73.2314 14.5703 72.4696 19.1413V48.6623C72.4696 50.8843 71.1364 55.5188 65.8035 56.2806H21.0458C19.1413 55.9632 15.1416 53.9951 14.3798 48.6623Z" stroke="black" stroke-width="3"/>
<circle cx="22.9499" cy="71.5173" r="4.26146" fill="#D9D9D9" stroke="black"/>
<circle cx="64.8513" cy="71.5173" r="4.26146" fill="#D9D9D9" stroke="black"/>
</svg>
